<svg width="25" height="25" viewBox="0 0 25 25" fill="none" xmlns="http://www.w3.org/2000/svg">
<path d="M24.1718 12.2344C23.2795 9.89908 21.7233 7.87588 19.6953 6.41406L23.4375 2.66406L22.3359 1.5625L1.56247 22.3359L2.66404 23.4375L6.64841 19.4609C8.42687 20.4975 10.4418 21.0597 12.5 21.0938C15.0464 20.998 17.509 20.1582 19.5834 18.6781C21.6578 17.198 23.253 15.1425 24.1718 12.7656C24.2339 12.594 24.2339 12.406 24.1718 12.2344V12.2344ZM12.5 17.5781C11.4231 17.5776 10.3746 17.2327 9.50779 16.5937L10.9375 15.1797C11.5303 15.5045 12.2124 15.6283 12.8816 15.5326C13.5507 15.4369 14.1708 15.1268 14.6488 14.6488C15.1268 14.1708 15.4369 13.5508 15.5326 12.8816C15.6283 12.2125 15.5045 11.5303 15.1797 10.9375L16.5937 9.52344C17.1441 10.2794 17.4747 11.1728 17.549 12.1049C17.6233 13.037 17.4384 13.9715 17.0148 14.8051C16.5911 15.6387 15.9452 16.3389 15.1484 16.8283C14.3516 17.3176 13.435 17.5772 12.5 17.5781V17.5781ZM3.53904 17.0391L7.44529 13.1328C7.42497 12.9225 7.41714 12.7112 7.42185 12.5C7.42391 11.1538 7.95959 9.86339 8.91148 8.91151C9.86336 7.95962 11.1538 7.42394 12.5 7.42188C12.7063 7.42297 12.9124 7.43601 13.1172 7.46094L16.0703 4.51563C14.9209 4.12086 13.7152 3.91507 12.5 3.90625C9.9535 4.00201 7.4909 4.84184 5.41654 6.32194C3.34217 7.80204 1.74697 9.85754 0.828098 12.2344C0.766041 12.406 0.766041 12.594 0.828098 12.7656C1.42812 14.3614 2.35101 15.8163 3.53904 17.0391V17.0391Z" fill="#757884"/>
</svg>
