<svg width="25" height="25" viewBox="0 0 25 25" fill="none" xmlns="http://www.w3.org/2000/svg">
<path d="M12.5 15.625C14.2259 15.625 15.625 14.2259 15.625 12.5C15.625 10.7741 14.2259 9.375 12.5 9.375C10.7741 9.375 9.375 10.7741 9.375 12.5C9.375 14.2259 10.7741 15.625 12.5 15.625Z" fill="#757884"/>
<path d="M24.1719 12.2344C23.253 9.85754 21.6578 7.80204 19.5834 6.32194C17.509 4.84184 15.0464 4.00201 12.5 3.90625C9.9535 4.00201 7.4909 4.84184 5.41654 6.32194C3.34217 7.80204 1.74697 9.85754 0.828098 12.2344C0.766041 12.406 0.766041 12.594 0.828098 12.7656C1.74697 15.1425 3.34217 17.198 5.41654 18.6781C7.4909 20.1582 9.9535 20.998 12.5 21.0938C15.0464 20.998 17.509 20.1582 19.5834 18.6781C21.6578 17.198 23.253 15.1425 24.1719 12.7656C24.2339 12.594 24.2339 12.406 24.1719 12.2344V12.2344ZM12.5 17.5781C11.4956 17.5781 10.5138 17.2803 9.67872 16.7223C8.84363 16.1643 8.19275 15.3712 7.8084 14.4433C7.42405 13.5154 7.32348 12.4944 7.51942 11.5093C7.71536 10.5242 8.19901 9.61941 8.9092 8.90922C9.61939 8.19903 10.5242 7.71539 11.5093 7.51945C12.4943 7.32351 13.5154 7.42407 14.4433 7.80842C15.3712 8.19278 16.1643 8.84365 16.7223 9.67875C17.2803 10.5138 17.5781 11.4956 17.5781 12.5C17.576 13.8462 17.0404 15.1366 16.0885 16.0885C15.1366 17.0404 13.8461 17.5761 12.5 17.5781V17.5781Z" fill="#757884"/>
</svg>
